<?xml version="1.0" encoding="UTF-8" standalone="no"?>
<svg
   version="1.1"
   width="524.8114"
   height="510.08612"
   viewbox="0 0 600 600"
   id="svg447"
   xmlns="http://www.w3.org/2000/svg"
   xmlns:svg="http://www.w3.org/2000/svg">
  <defs
     id="defs451" />
  <title
     id="title439">undefined</title>
  <path
     d="m 268.69402,0.03667068 c -1.39,-0.278 -3.61,1.05400002 -5,3.00000002 -1.375,1.925 -4.3,7.1000003 -6.5,11.5000003 -2.2,4.4 -5.575,11.375 -7.5,15.5 -1.925,4.125 -4.175,7.725 -5,8 -0.825,0.275 -4.2,-0.625 -7.5,-2 -3.3,-1.375 -8.7,-3.175 -12,-4 -3.3,-0.825 -9.15,-1.95 -13,-2.5 -3.85,-0.55 -9.7,-1 -13,-1 -3.3,0 -10.275,0.9 -15.5,2 -5.225,1.1 -14.225,4.25 -20,7 -5.775,2.75 -14.55,8.15 -19.5,12 -4.95,3.85 -9.9,6.775 -11,6.5 -1.1,-0.275 -4.475,-2.075 -7.5,-4 -3.025,-1.925 -10.225,-5.075 -16,-7 -5.775,-1.925 -12.975004,-3.5 -16.000004,-3.5 -3.025,0 -8.2,1.575 -11.5,3.5 -3.3,1.925 -7.35,4.85 -9,6.5 -1.65,1.65 -5.25,5.925 -8,9.5 -2.75,3.575 -7.025,10.325 -9.5,15 -2.475,4.675 -5.4,11.2 -6.5,14.5 -1.1,3.3 -2.45,8.25 -3,10.999999 -0.55,2.75 -1,7.475 -1,10.5 0,3.025 0.225,6.625 0.5,8 0.352,1.762 -0.09,2.205 -1.5,1.5 -1.1,-0.55 -2.45,-1.675 -3,-2.5 -0.55,-0.825 -0.775,0.75 -0.5,3.5 0.275,2.75 1.625,7.475 3,10.5 1.375,3.025 2.95,6.625 3.5,8 0.55,1.375 1.45,3.625 2,5 0.55,1.375 0.325,2.275 -0.5,2 -0.825,-0.275 -0.6,1.075 0.5,3 1.1,1.925 3.125,4.175 4.5,5 l 2.5,1.5 -5.5,0.5 c -3.025,0.275 -7.975,-0.625 -11,-2 -3.025,-1.375 -7.075,-4.525 -9,-7 -1.925,-2.475 -4.175,-6.525 -5,-9 -0.825,-2.475 -1.275,-6.525 -1,-9 0.278,-2.506 -0.165,-4.057 -1,-3.5 -0.825,0.55 -2.175,3.025 -3,5.5 -0.825,2.475 -1.725,8.325 -2,13 -0.275,4.675 0.625,11.2 2,14.5 1.375,3.3 4.525,8.25 7,11 2.475,2.75 6.975,6.35 10,8 3.025,1.65 7.975,4.125 11,5.5 l 5.5,2.5 2.5,16.5 c 1.375,9.075 2.725,18.525 3,21 0.275,2.475 0.275,6.3 0,8.5 -0.275,2.2 -1.85,5.35 -3.5,7 -1.65,1.65 -5.25,3.675 -8,4.5 -2.803,0.841 -7.636,0.621 -11,-0.5 l -6,-2 1,3.5 c 0.55,1.925 3.025,6.2 5.5,9.5 2.475,3.3 4.95,6.225 5.5,6.5 0.55,0.275 -1.7,1.625 -5,3 -3.3,1.375 -8.025,2.725 -10.5,3 -2.475,0.275 -6.975,-0.625 -10,-2 -3.025,-1.375 -7.075,-4.075 -9.0000005,-6 -1.925,-1.925 -4.4,-4.625 -5.5,-6 l -2,-2.5 -1,5 c -0.596,2.98 0.212,7.828 2,12 1.65,3.85 4.8,8.575 7,10.5 2.6830005,2.348 3.3420005,3.665 2.0000005,4 -1.3690005,0.342 -1.2110005,1.289 0.5,3 1.375,1.375 4.525,4.525 7,7 2.475,2.475 6.525,6.525 9,9 2.475,2.475 7.2,6.075 10.5,8 3.3,1.925 6.675,3.95 7.5,4.5 0.882,0.588 -0.148,2.648 -2.5,5 -2.2,2.2 -4.675,4.9 -5.5,6 -0.825,1.1 -1.725,2.9 -2,4 -0.335,1.342 2.298,2.658 8,4 4.675,1.1 9.175,2.9 10,4 0.825,1.1 0.6,3.575 -0.5,5.5 -1.1,1.925 -3.575,4.625 -5.5,6 -1.925,1.375 -5.525,3.175 -8,4 -2.475,0.825 -5.625,1.95 -7,2.5 l -2.5,1 3,3.5 c 1.65,1.925 5.925,5.075 9.5,7 3.575,1.925 9.65,4.625 13.5,6 3.85,1.375 7.45,2.275 8,2 0.55,-0.275 -0.35,1.525 -2,4 -1.65,2.475 -5.475,6.3 -8.5,8.5 -3.025,2.2 -7.3,4.9 -9.5,6 l -4,2 5.5,4.5 c 3.025,2.475 10,6.3 15.5,8.5 5.5,2.2 11.8,4.225 14,4.5 2.2,0.275 4.225,0.275 4.5,0 0.275,-0.275 -2.425,6.475 -6,15 -3.575,8.525 -6.95,17.3 -7.5,19.5 -0.55,2.2 -0.775,6.925 -0.5,10.5 0.275,3.575 1.175,8.075 2,10 0.825,1.925 3.525,5.75 6,8.5 2.475,2.75 6.075,6.125 8,7.5 1.925,1.375 6.2,3.175 9.5,4 3.3,0.825 8.25,1.95 11.000004,2.5 2.75,0.55 7.475,2.8 10.5,5 3.025,2.2 7.525,4.675 10,5.5 2.475,0.825 6.75,1.95 9.5,2.5 2.75,0.55 8.15,1.225 12,1.5 3.85,0.275 12.625,-0.625 19.5,-2 6.875,-1.375 14.075,-2.05 16,-1.5 1.925,0.55 6.2,2.125 9.5,3.5 3.3,1.375 9.6,2.95 14,3.5 4.4,0.55 12.05,1.225 17,1.5 4.95,0.275 12.375,-0.625 16.5,-2 4.125,-1.375 10.425,-4.75 14,-7.5 3.575,-2.75 8.075,-5.9 10,-7 1.925,-1.1 4.85,-1.775 6.5,-1.5 1.65,0.275 3.9,1.175 5,2 1.1,0.825 4.25,2.4 7,3.5 2.75,1.1 8.15,2.45 12,3 3.85,0.55 9.475,1 12.5,1 3.025,0 9.55,-1.8 14.5,-4 4.95,-2.2 9.675,-5.35 10.5,-7 1.088,-2.175 2.737,-2.863 6,-2.5 2.475,0.275 9.9,2.975 16.5,6 6.6,3.025 14.7,6.175 18,7 3.3,0.825 8.475,1.725 11.5,2 3.025,0.275 10.225,-1.075 16,-3 5.775,-1.925 11.625,-4.625 13,-6 1.375,-1.375 5.2,-2.95 8.5,-3.5 3.3,-0.55 12.3,-1.9 20,-3 9.478,-1.354 17.714,-3.776 25.5,-7.5 6.325,-3.025 14.425,-7.525 18,-10 3.575,-2.475 9.425,-7.65 13,-11.5 3.575,-3.85 8.3,-9.7 10.5,-13 2.2,-3.3 5.35,-8.7 7,-12 1.65,-3.3 4.125,-9.375 5.5,-13.5 1.375,-4.125 3.175,-10.875 4,-15 0.825,-4.125 1.95,-11.1 2.5,-15.5 0.55,-4.4 0.775,-10.025 0.5,-12.5 -0.275,-2.475 -1.4,-9.45 -2.5,-15.5 -1.1,-6.05 -4.25,-16.4 -7,-23 -2.75,-6.6 -6.125,-13.575 -7.5,-15.5 -1.375,-1.925 -5.425,-7.1 -9,-11.5 -3.575,-4.4 -9.425,-10.7 -13,-14 -3.575,-3.3 -8.3,-7.8 -10.5,-10 -2.2,-2.2 -5.125,-5.575 -6.5,-7.5 -1.375,-1.925 -3.625,-6.2 -5,-9.5 -1.375,-3.3 -2.95,-8.25 -3.5,-11 -0.55,-2.75 -0.325,-7.025 0.5,-9.5 0.825,-2.475 3.075,-6.3 5,-8.5 1.925,-2.2 4.625,-4.675 6,-5.5 1.375,-0.825 4.3,-1.95 6.5,-2.5 2.2,-0.55 6.25,-0.1 9,1 2.75,1.1 6.575,4.025 8.5,6.5 1.925,2.475 3.95,5.625 4.5,7 l 1,2.5 2,-4 c 1.1,-2.2 1.775,-6.7 1.5,-10 -0.369,-4.422 -1.946,-7.578 -6,-12 -3.025,-3.3 -7.3,-6.9 -9.5,-8 -2.2,-1.1 -6.025,-2.45 -8.5,-3 l -4.5,-1 3.5,-2.5 c 1.925,-1.375 5.075,-5.425 7,-9 1.925,-3.575 4.175,-9.875 5,-14 0.825,-4.125 0.825,-12.675 0,-19 -0.825,-6.325 -2.625,-15.55 -4,-20.5 -1.375,-4.95 -3.4,-10.35 -4.5,-12 l -2,-3 -2,5.5 c -1.1,3.025 -4.025,7.75 -6.5,10.5 -2.475,2.75 -6.3,5.9 -8.5,7 -2.2,1.1 -6.7,2.675 -10,3.5 -3.3,0.825 -10.725,1.5 -16.5,1.5 -5.775,0 -14.1,0.675 -18.5,1.5 -4.4,0.825 -10.925,2.85 -14.5,4.5 -3.575,1.65 -8.075,3.9 -10,5 l -3.5,2 1.5,-3 c 0.825,-1.65 4.2,-5.7 7.5,-9 l 6,-6 -3.5,0.5 c -1.925,0.275 -5.975,1.625 -9,3 -3.025,1.375 -8.2,4.525 -11.5,7 -3.3,2.475 -8.7,7.65 -12,11.5 -3.3,3.85 -8.25,10.825 -11,15.5 -2.75,4.675 -6.8,13 -9,18.5 -2.2,5.5 -4.9,13.6 -6,18 -1.1,4.4 -1.775,8.9 -1.5,10 0.275,1.1 0.725,2.225 1,2.5 0.275,0.275 -0.625,-0.85 -2,-2.5 -1.375,-1.65 -2.95,-4.8 -3.5,-7 -0.55,-2.2 -1.225,-5.125 -1.5,-6.5 -0.275,-1.375 -0.05,-6.1 0.5,-10.5 0.55,-4.4 1.45,-12.275 2,-17.5 l 1,-9.5 5.5,-5 c 3.025,-2.75 7.75,-8.15 10.5,-12 2.75,-3.85 5.225,-8.575 5.5,-10.5 0.275,-1.925 0.275,-4.175 0,-5 -0.275,-0.825 0.85,-5.1 2.5,-9.5 1.65,-4.4 3.675,-12.725 4.5,-18.5 0.825,-5.775 1.725,-13.65 2,-17.5 0.275,-3.85 -0.175,-11.049999 -1,-15.999999 -0.825,-4.95 -2.85,-12.825 -4.5,-17.5 -1.65,-4.675 -3.675,-9.4 -4.5,-10.5 -0.825,-1.1 -3.525,-3.125 -6,-4.5 -2.475,-1.375 -7.2,-2.5 -10.5,-2.5 -3.3,0 -7.8,0.45 -10,1 -2.2,0.55 -9.175,2.8 -15.5,5 -6.325,2.2 -12.85,4.9 -14.5,6 -1.65,1.1 -5.475,3.575 -8.5,5.5 -3.025,1.925 -5.725,3.725 -6,4 -0.275,0.275 -0.725,-0.85 -1,-2.5 -0.275,-1.65 -2.525,-6.15 -5,-10 -2.475,-3.85 -7.2,-9.925 -10.5,-13.5 -3.3,-3.575 -6.225,-7.625 -6.5,-9 -0.275,-1.375 -0.05,-4.3 0.5,-6.5 0.55,-2.2 1.9,-10.3 3,-18 1.1,-7.7 1.775,-15.5750003 1.5,-17.5000003 -0.275,-1.925 -1.625,-3.72500002 -3,-4.00000002 m -2,14.50000032 c 0.275,0 0.275,0.675 0,1.5 -0.275,0.825 -1.175,3.525 -2,6 -1.057,3.172 -2.681,4.795 -5.5,5.5 -2.2,0.55 -3.775,0.775 -3.5,0.5 0.275,-0.275 1.4,-2.075 2.5,-4 1.1,-1.925 3.35,-4.85 5,-6.5 1.65,-1.65 3.225,-3 3.5,-3 m -3,16 c 0.275,0 0.275,1.125 0,2.5 -0.275,1.375 -1.175,4.075 -2,6 -0.973,2.271 -2.904,3.676 -5.5,4 -2.2,0.275 -4.45,-0.175 -5,-1 -0.55,-0.825 -0.1,-3.3 1,-5.5 1.3,-2.6 3.575,-4.35 6.5,-5 2.475,-0.55 4.725,-1 5,-1 m -61.5,3.5 c 4.4,0.275 11.825,1.175 16.5,2 4.675,0.825 12.1,3.075 16.5,5 l 8,3.5 -1.5,2.5 c -1.174,1.957 -3.346,2.066 -10,0.5 -4.675,-1.1 -11.875,-1.775 -16,-1.5 -4.125,0.275 -9.75,0.95 -12.5,1.5 -2.75,0.55 -7.7,1.9 -11,3 -3.3,1.1 -9.6,3.8 -14,6 -4.4,2.2 -12.275,7.375 -17.5,11.5 -5.225,4.125 -9.725,7.95 -10,8.5 -0.275,0.55 -0.725,0.775 -1,0.5 -0.275,-0.275 -2.3,-2.975 -4.5,-6 -2.2,-3.025 -4.225,-6.4 -4.5,-7.5 -0.275,-1.1 0.4,-3.125 1.5,-4.5 1.1,-1.375 5.15,-4.975 9,-8 3.85,-3.025 10.825,-7.3 15.5,-9.5 4.675,-2.2 12.775,-4.9 18,-6 5.225,-1.1 13.1,-1.775 17.5,-1.5 m -109.000004,12.5 c 1.65,0 6.375,0.9 10.500004,2 4.125,1.1 11.1,3.8 15.5,6 4.4,2.2 11.825,7.15 16.5,11 5.232,4.309 8.884,8.538 9.5,11 0.75,3.001 0.126,4.749 -2.5,7 -2.302,1.973 -4.185,2.487 -5.5,1.5 -1.1,-0.825 -3.35,-3.075 -5,-5 -1.65,-1.925 -6.825,-6.425 -11.5,-10 -4.675,-3.575 -11.425,-7.85 -15,-9.5 -4.44,-2.049 -7.768004,-2.525 -10.500004,-1.5 -2.2,0.825 -6.475,4.65 -9.5,8.5 -3.025,3.85 -7.75,11.5 -10.5,17 -2.75,5.5 -6.125,15.175 -7.5,21.499999 -1.375,6.325 -2.05,14.65 -1.5,18.5 0.55,3.85 1.675,9.025 2.5,11.5 0.825,2.475 1.725,6.075 2,8 0.335,2.348 -0.817,4.652 -3.5,7 -2.599,2.274 -5.05,3.15 -7,2.5 -1.65,-0.55 -4.125,-2.35 -5.5,-4 -1.375,-1.65 -2.725,-3.45 -3,-4 -0.275,-0.55 -0.05,-0.775 0.5,-0.5 0.55,0.275 2.575,0.725 4.5,1 1.925,0.275 3.275,0.275 3,0 -0.275,-0.275 -2.525,-2.75 -5,-5.5 -2.475,-2.75 -4.95,-6.8 -5.5,-9 -0.55,-2.2 -0.775,-4.45 -0.5,-5 0.275,-0.55 1.4,0.125 2.5,1.5 1.1,1.375 2.45,2.275 3,2 0.55,-0.275 0.1,-2.525 -1,-5 -1.1,-2.475 -2.225,-7.425 -2.5,-11 -0.275,-3.575 -0.05,-8.75 0.5,-11.5 0.55,-2.749999 1.9,-7.699999 3,-10.999999 1.1,-3.3 3.125,-8.25 4.5,-11 1.375,-2.75 4.75,-8.15 7.5,-12 2.75,-3.85 7.25,-9.25 10,-12 2.75,-2.75 7.025,-6.125 9.5,-7.5 2.475,-1.375 5.85,-2.5 7.5,-2.5 m 166.500004,0 c 0.825,0 1.275,0.9 1,2 -0.275,1.1 -0.95,3.8 -1.5,6 -0.55,2.2 -2.35,5.125 -4,6.5 -1.65,1.375 -5.025,2.275 -7.5,2 -2.819,-0.313 -4.687,-1.434 -5,-3 -0.275,-1.375 0.625,-4.525 2,-7 1.879,-3.382 3.866,-4.748 8,-5.5 3.025,-0.55 6.175,-1 7,-1 m -41.5,4.5 c 4.95,0.275 11.25,1.175 14,2 3.973,1.192 4.897,2.116 4.5,4.5 l -0.5,3 h -10.5 c -5.775,0 -12.75,0.45 -15.5,1 -2.75,0.55 -7.7,1.9 -11,3 -3.3,1.1 -9.6,4.25 -14,7 -4.4,2.75 -13.85,10.175 -21,16.5 -8.738,7.73 -16.279,12.974999 -23,15.999999 -5.5,2.475 -12.7,4.725 -16,5 -3.3,0.275 -8.025,0.725 -10.5,1 -2.475,0.275 -6.075,0.275 -8,0 -1.925,-0.275 -5.975,-1.175 -9.000004,-2 l -5.5,-1.5 3,-1 c 1.65,-0.55 6.375004,-1 10.500004,-1 4.125,0 9.75,-0.45 12.5,-1 2.75,-0.55 7.925,-2.575 11.5,-4.499999 3.575,-1.925 9.425,-5.975 13,-9 3.575,-3.025 9.65,-8.425 13.5,-12 3.85,-3.575 10.15,-8.75 14,-11.5 3.85,-2.75 10.15,-6.575 14,-8.5 3.85,-1.925 11.05,-4.4 16,-5.5 4.95,-1.1 13.05,-1.775 18,-1.5 m 48,3 c 0.55,0.825 2.125,2.625 3.5,4 1.375,1.375 4.75,5.65 7.5,9.5 2.75,3.85 5.675,9.475 6.5,12.5 0.825,3.025 0.825,5.05 0,4.5 -0.825,-0.55 -3.3,-3.475 -5.5,-6.5 -2.2,-3.025 -6.25,-7.75 -9,-10.5 l -5,-5 0.5,-5 c 0.275,-2.75 0.95,-4.325 1.5,-3.5 m -168.500004,9.5 c 1.375,0 4.750004,1.125 7.500004,2.5 2.75,1.375 7.7,4.525 11,7 3.3,2.475 8.475,6.975 11.5,10 3.025,3.025 5.275,6.175 5,7 -0.275,0.825 -3.425,-0.075 -7,-2 -3.575,-1.925 -8.075,-4.85 -10,-6.5 -1.925,-1.65 -3.95,-2.55 -4.5,-2 -0.55,0.55 -1.9,3.025 -3,5.5 -1.1,2.475 -2.675,6.075 -3.5,8 -0.825,1.925 -2.175,3.95 -3,4.5 -0.825,0.55 -3.525004,1.225 -6.000004,1.5 -2.475,0.275 -6.3,0.05 -8.5,-0.5 -2.2,-0.55 -3.775,-0.325 -3.5,0.5 0.275,0.825 1.625,3.524999 3,5.999999 1.375,2.475 3.4,5.175 4.5,6 1.1,0.825 2.225,3.75 2.5,6.5 0.353,3.527 -0.678,6.473 -3.5,10 -2.2,2.75 -5.35,6.35 -7,8 -1.65,1.65 -3.9,4.35 -5,6 -1.1,1.65 -2.225,2.775 -2.5,2.5 -0.275,-0.275 -1.625,-3.875 -3,-8 -1.375,-4.125 -2.275,-11.325 -2,-16 0.275,-4.675 0.95,-10.75 1.5,-13.5 0.55,-2.75 2.125,-7.924999 3.5,-11.499999 1.375,-3.575 4.075,-9.425 6,-13 1.925,-3.575 5.75,-9.2 8.5,-12.5 2.75,-3.3 6.125,-6 7.5,-6 m 248.000004,1.5 c 4.748,0.365 7.444,1.578 10,4.5 1.925,2.2 4.625,7.825 6,12.5 1.375,4.675 2.95,11.2 3.5,14.5 0.55,3.3 0.775,9.599999 0.5,13.999999 -0.275,4.4 -0.95,11.6 -1.5,16 -0.55,4.4 -2.125,11.375 -3.5,15.5 -1.375,4.125 -3.4,9.525 -4.5,12 -1.1,2.475 -1.775,4.95 -1.5,5.5 0.275,0.55 1.625,0.55 3,0 1.885,-0.754 1.762,-0.016 -0.5,3 -1.65,2.2 -6.375,7.375 -10.5,11.5 l -7.5,7.5 -1,-5 -1,-5 5,-6.5 c 2.75,-3.575 6.575,-10.1 8.5,-14.5 1.925,-4.4 4.4,-12.5 5.5,-18 1.1,-5.5 2,-12.25 2,-15 0,-2.75 -0.45,-9.05 -1,-14 -0.55,-4.949999 -1.9,-12.374999 -3,-16.499999 -1.1,-4.125 -2.675,-8.625 -3.5,-10 -0.825,-1.375 -2.4,-2.725 -3.5,-3 -1.1,-0.275 -4.7,0.625 -8,2 -3.3,1.375 -8.7,4.525 -12,7 -3.3,2.475 -7.125,5.625 -8.5,7 -1.375,1.375 -4.975,6.55 -8,11.499999 -3.025,4.95 -5.95,10.8 -6.5,13 l -1,4 5,-5.5 c 2.75,-3.025 8.6,-7.075 13,-9 4.4,-1.925 8.225,-2.825 8.5,-2 0.275,0.825 -0.175,3.075 -1,5 -0.825,1.925 -2.85,4.4 -4.5,5.5 -1.65,1.1 -4.125,2.9 -5.5,4 l -2.5,2 5.5,-0.5 c 3.025,-0.275 6.175,-0.95 7,-1.5 0.825,-0.55 1.725,-0.775 2,-0.5 0.275,0.275 -0.625,2.075 -2,4 -1.375,1.925 -4.525,4.85 -7,6.5 -2.475,1.65 -4.275,3.225 -4,3.5 0.275,0.275 2.525,0.725 5,1 2.475,0.275 6.525,0.725 9,1 2.475,0.275 4.275,0.725 4,1 -0.275,0.275 -2.525,1.625 -5,3 -2.475,1.375 -5.85,2.95 -7.5,3.5 l -3,1 2.5,2 c 1.375,1.1 2.725,3.125 3,4.5 0.275,1.375 1.625,6.325 3,11 1.375,4.675 3.175,12.55 4,17.5 0.825,4.95 1.275,13.95 1,20 -0.275,6.05 -0.95,15.275 -1.5,20.5 -0.55,5.225 -0.55,11.75 0,14.5 0.55,2.75 2.35,6.8 4,9 1.65,2.2 5.475,4.9 8.5,6 3.42,1.244 5.311,2.756 5,4 -0.293,1.173 -3.187,2 -7,2 h -6.5 l 2,2 c 1.1,1.1 3.575,2.45 5.5,3 2.453,0.701 3.051,1.449 2,2.5 -0.825,0.825 -2.85,2.4 -4.5,3.5 l -3,2 2.5,6.5 2.5,6.5 -3.5,-1.5 c -1.925,-0.825 -4.625,-1.275 -6,-1 -1.375,0.275 -4.75,4.1 -7.5,8.5 -2.75,4.4 -7.475,10.475 -10.5,13.5 -3.025,3.025 -8.2,7.3 -11.5,9.5 -3.3,2.2 -10.95,6.025 -17,8.5 -6.05,2.475 -18.65,5.85 -28,7.5 -9.35,1.65 -25.325,3 -35.5,3 -10.175,0 -22.775,-0.45 -28,-1 -5.225,-0.55 -12.2,-1.45 -15.5,-2 -3.3,-0.55 -11.175,-2.125 -17.5,-3.5 -6.325,-1.375 -16.9,-4.525 -23.5,-7 -6.6,-2.475 -16.05,-6.525 -21,-9 -4.95,-2.475 -12.6,-6.975 -17,-10 -4.400004,-3.025 -9.800004,-7.3 -12.000004,-9.5 -2.2,-2.2 -5.8,-4.9 -8,-6 l -4,-2 3,-0.5 c 1.65,-0.275 3.45,-1.175 4,-2 0.594,-0.891 -0.625,-1.703 -3,-2 -2.2,-0.275 -5.8,-0.95 -8,-1.5 -2.2,-0.55 -3.775,-1.225 -3.5,-1.5 0.275,-0.275 2.3,-0.95 4.5,-1.5 2.2,-0.55 4.45,-1.675 5,-2.5 0.55,-0.825 -0.8,-1.05 -3,-0.5 -2.2,0.55 -6.025,0.775 -8.5,0.5 -2.475,-0.275 -3.825,-0.95 -3,-1.5 0.825,-0.55 2.625,-1.9 4,-3 1.375,-1.1 5.2,-3.575 8.5,-5.5 3.3,-1.925 8.475,-5.075 11.5,-7 3.025,-1.925 6.625,-4.625 8,-6 1.375,-1.375 3.625004,-4.525 5.000004,-7 1.375,-2.475 3.4,-8.55 4.5,-13.5 1.1,-4.95 3.575,-11.475 5.5,-14.5 1.925,-3.025 6.2,-7.3 9.5,-9.5 3.3,-2.2 10.05,-5.35 15,-7 4.95,-1.65 12.825,-3.45 17.5,-4 4.675,-0.55 16.375,-0.325 26,0.5 9.625,0.825 22.225,1.05 28,0.5 5.775,-0.55 13.875,-1.9 18,-3 4.125,-1.1 11.775,-4.25 17,-7 5.225,-2.75 11.975,-7.25 15,-10 3.025,-2.75 7.525,-7.7 10,-11 2.475,-3.3 5.85,-8.925 7.5,-12.5 1.65,-3.575 3.9,-10.325 5,-15 1.1,-4.675 1.775,-10.975 1.5,-14 -0.275,-3.025 -1.625,-10 -3,-15.499999 -2,-8 -2,-9.6 0,-8 1.375,1.1 3.85,4.925 5.5,8.5 1.65,3.574999 3.225,6.049999 3.5,5.499999 0.275,-0.55 0.05,-2.8 -0.5,-4.999999 -0.55,-2.2 -0.775,-5.35 -0.5,-7 0.275,-1.65 1.85,-4.125 3.5,-5.5 1.65,-1.375 7.05,-4.975 12,-8 4.95,-3.025 13.5,-7.075 19,-9 5.5,-1.925 11.8,-3.95 14,-4.5 2.2,-0.55 6.925,-0.775 10.5,-0.5 m -130.5,0.5 c 3.3,0 8.025,0.225 10.5,0.5 2.475,0.275 4.95,0.725 5.5,1 0.55,0.275 0.775,1.85 0.5,3.5 -0.275,1.65 -1.175,4.575 -2,6.5 -0.825,1.925 -2.625,6.425 -4,10 -1.375,3.575 -2.95,7.175 -3.5,8 -0.55,0.825 -2.575,5.774999 -4.5,10.999999 -1.925,5.225 -4.85,11.3 -6.5,13.5 -1.65,2.2 -6.15,6.475 -10,9.5 -3.85,3.025 -9.925,6.85 -13.5,8.5 -3.575,1.65 -10.1,3.675 -14.5,4.5 -4.4,0.825 -15.2,1.725 -24,2 -8.8,0.275 -19.15,1.175 -23,2 -3.85,0.825 -10.375,2.85 -14.5,4.5 -4.125,1.65 -10.425,5.025 -14.000004,7.5 -3.575,2.475 -9.425,7.425 -13,11 -3.575,3.575 -9.2,7.625 -12.5,9 -3.3,1.375 -9.375,2.275 -13.5,2 -4.125,-0.275 -9.975,-1.4 -13,-2.5 -3.025,-1.1 -7.075,-3.125 -9,-4.5 -1.925,-1.375 -5.3,-4.975 -7.5,-8 -2.2,-3.025 -4.45,-7.525 -5,-10 -0.55,-2.475 -0.325,-4.05 0.5,-3.5 0.825,0.55 1.95,1.675 2.5,2.5 0.55,0.825 3.7,3.075 7,5 3.3,1.925 8.25,3.725 11,4 2.75,0.275 7.7,-0.175 11,-1 3.3,-0.825 8.925,-3.525 12.5,-6 3.575,-2.475 10.775,-8.775 16,-14 5.225,-5.225 12.2,-11.525 15.500004,-14 3.3,-2.475 10.725,-5.85 16.5,-7.5 5.775,-1.65 13.2,-3.9 16.5,-5 3.3,-1.1 8.7,-3.575 12,-5.5 3.3,-1.925 9.375,-6.425 13.5,-10 4.125,-3.574999 9.3,-8.299999 11.5,-10.499999 2.2,-2.2 7.825,-6.925 12.5,-10.5 4.675,-3.575 12.55,-8.075 17.5,-10 4.95,-1.925 11.7,-3.5 15,-3.5 m 41.5,0 c 0.275,0 0.275,1.125 0,2.5 -0.275,1.375 -1.625,4.525 -3,7 -1.538,2.768 -3.847,4.692 -6,5 -1.925,0.275 -5.075,0.05 -7,-0.5 -1.925,-0.55 -3.725,-1.9 -4,-3 -0.275,-1.1 0.4,-3.575 1.5,-5.5 1.52,-2.66 3.32,-3.5 7.5,-3.5 3.025,0 6.625,-0.45 8,-1 1.375,-0.55 2.725,-1 3,-1 m 10,17.5 c 1.925,1.925 4.85,7.1 6.5,11.5 1.928,5.142 2.821,11.929999 2.5,18.999999 -0.275,6.05 -1.175,13.475 -2,16.5 -0.825,3.025 -3.3,8.875 -5.5,13 -2.2,4.125 -6.25,10.2 -9,13.5 -2.75,3.3 -8.375,8.25 -12.5,11 -4.125,2.75 -11.775,6.575 -17,8.5 -5.225,1.925 -13.775,3.95 -19,4.5 -5.225,0.55 -11.525,0.775 -14,0.5 -2.819,-0.313 -3.753,-0.873 -2.5,-1.5 1.1,-0.55 6.05,-2.125 11,-3.5 4.95,-1.375 13.5,-4.75 19,-7.5 5.5,-2.75 12.25,-6.8 15,-9 2.75,-2.2 7.025,-6.25 9.5,-9 2.475,-2.75 6.3,-7.925 8.5,-11.5 2.2,-3.575 5.35,-10.1 7,-14.5 1.65,-4.4 3.45,-9.125 4,-10.5 0.55,-1.375 1,-4.975 1,-8 0,-3.025 -0.675,-7.974999 -1.5,-10.999999 -0.825,-3.025 -2.175,-7.75 -3,-10.5 l -1.5,-5 3.5,3.5 m 76.5,-3.5 c 1.1,0 2.9,0.675 4,1.5 1.1,0.825 2.9,5.55 4,10.5 1.1,4.95 2,13.724999 2,19.499999 0,5.775 -0.675,14.55 -1.5,19.5 -0.825,4.95 -2.4,11.7 -3.5,15 -1.1,3.3 -3.125,7.575 -4.5,9.5 -1.375,1.925 -3.4,4.85 -4.5,6.5 -1.1,1.65 -2.45,2.55 -3,2 -0.55,-0.55 -1.675,-2.8 -2.5,-5 -0.825,-2.2 -1.725,-6.7 -2,-10 -0.386,-4.627 0.301,-6.687 3,-9 1.925,-1.65 3.725,-4.125 4,-5.5 0.275,-1.375 -0.85,-3.625 -2.5,-5 -1.65,-1.375 -2.775,-3.85 -2.5,-5.5 0.275,-1.65 0.275,-8.625 0,-15.5 l -0.5,-12.499999 -7,1.5 -7,1.5 3,-4 c 1.65,-2.2 6.6,-6.475 11,-9.5 4.4,-3.025 8.9,-5.5 10,-5.5 m -82.5,3.5 c 0.825,1.375 1.95,4.3 2.5,6.5 0.55,2.2 1.225,6.025 1.5,8.5 0.275,2.474999 0.275,6.524999 0,8.999999 -0.275,2.475 -1.625,7.875 -3,12 -1.375,4.125 -3.4,9.3 -4.5,11.5 -1.1,2.2 -3.575,6.25 -5.5,9 -1.925,2.75 -7.325,8.6 -12,13 -4.675,4.4 -12.1,9.8 -16.5,12 -4.4,2.2 -11.6,5.125 -16,6.5 -4.4,1.375 -17.675,3.85 -29.5,5.5 -11.825,1.65 -23.75,3.45 -26.5,4 -2.75,0.55 -6.8,1.45 -9,2 -2.2,0.55 -6.025,1.675 -8.5,2.5 -2.475,0.825 -6.75,2.625 -9.5,4 -2.75,1.375 -7.25,4.3 -10,6.5 -2.75,2.2 -6.35,6.25 -8,9 -1.65,2.75 -3.675,7.925 -4.5,11.5 -0.825,3.575 -2.625004,9.2 -4.000004,12.5 -1.375,3.3 -4.3,7.8 -6.5,10 -2.2,2.2 -8.5,6.025 -14,8.5 -7.498,3.374 -12.126,4.375 -18.5,4 l -8.5,-0.5 4,-2 c 2.2,-1.1 5.575,-3.125 7.5,-4.5 1.925,-1.375 4.85,-4.075 6.5,-6 1.65,-1.925 3.45,-5.75 4,-8.5 0.55,-2.75 0.775,-7.025 0.5,-9.5 -0.275,-2.475 -0.275,-8.775 0,-14 0.275,-5.225 1.625,-12.2 3,-15.5 1.375,-3.3 4.75,-8.925 7.5,-12.5 2.75,-3.575 8.825,-9.425 13.5,-13 4.675004,-3.575 13.225004,-8.3 19.000004,-10.5 5.775,-2.2 14.325,-4.45 19,-5 4.675,-0.55 15.025,-1.225 23,-1.5 7.975,-0.275 17.875,-1.4 22,-2.5 4.125,-1.1 10.425,-3.575 14,-5.5 3.575,-1.925 9.65,-6.2 13.5,-9.5 l 7,-6 4,3 c 2.2,1.65 6.025,3.225 8.5,3.5 2.475,0.275 6.3,0.05 8.5,-0.5 2.2,-0.55 5.35,-2.125 7,-3.5 1.65,-1.375 4.575,-5.2 6.5,-8.5 1.925,-3.3 3.95,-8.7 4.5,-12 0.55,-3.3 1.675,-7.799999 2.5,-9.999999 0.825,-2.2 1.95,-6.7 2.5,-10 l 1,-6 1.5,2.5 m -24.5,1 c 1.65,0.275 5.925,0.275 9.5,0 l 6.5,-0.5 -0.5,4 c -0.275,2.2 -1.175,5.125 -2,6.5 -0.825,1.375 -2.85,3.175 -4.5,4 -1.65,0.825 -5.475,0.6 -8.5,-0.5 -3.025,-1.1 -5.725,-3.125 -6,-4.5 -0.275,-1.375 0.175,-4.075 1,-6 1.039,-2.423 2.423,-3.346 4.5,-3 m -116.5,6.5 c 5.959,3.178 7.089,4.308 5.5,5.5 -1.1,0.825 -3.8,1.95 -6,2.5 -2.2,0.55 -4.9,0.325 -6,-0.5 -1.1,-0.825 -1.775,-3.75 -1.5,-6.5 l 0.5,-5 7.5,4 m 108.5,8.5 c 1.1,0.275 4.025,1.399999 6.5,2.499999 2.475,1.1 6.525,1.775 9,1.5 3.561,-0.396 4.396,0.022 4,2 -0.275,1.375 -1.4,4.075 -2.5,6 -1.287,2.252 -3.605,3.678 -6.5,4 -2.475,0.275 -6.525,-0.625 -9,-2 -2.475,-1.375 -4.725,-3.625 -5,-5 -0.275,-1.375 -0.05,-4.075 0.5,-6 0.579,-2.027 1.842,-3.289999 3,-2.999999 m -6.5,13.499999 c 0.275,0.55 2.75,2.35 5.5,4 3.168,1.901 6.649,2.634 9.5,2 2.475,-0.55 4.725,-0.325 5,0.5 0.275,0.825 -1.525,2.85 -4,4.5 -2.475,1.65 -6.075,2.775 -8,2.5 -1.925,-0.275 -4.85,-2.075 -6.5,-4 -1.65,-1.925 -2.775,-5.075 -2.5,-7 0.275,-1.925 0.725,-3.05 1,-2.5 m -105,0 h 8.5 l -6.5,2 c -3.575,1.1 -9.875,3.35 -14,5 -5.861004,2.344 -7.281004,2.454 -6.500004,0.5 0.55,-1.375 3.025004,-3.625 5.500004,-5 2.475,-1.375 8.325,-2.5 13,-2.5 m 365,34.5 c 0.275,0.275 -0.175,2.975 -1,6 -0.825,3.025 -3.75,8.2 -6.5,11.5 -2.75,3.3 -7.925,7.8 -11.5,10 -3.575,2.2 -9.65,5.35 -13.5,7 -3.85,1.65 -9.925,4.8 -13.5,7 -3.575,2.2 -8.975,6.475 -12,9.5 -3.025,3.025 -7.525,9.1 -10,13.5 -2.475,4.4 -5.4,12.05 -6.5,17 -1.1,4.95 -1.775,11.7 -1.5,15 0.275,3.3 0.95,8.25 1.5,11 0.55,2.75 1.675,7.025 2.5,9.5 0.825,2.475 2.4,6.3 3.5,8.5 1.1,2.2 3.575,6.25 5.5,9 1.925,2.75 6.875,8.375 11,12.5 4.125,4.125 12.9,13.125 19.5,20 6.6,6.875 14.025,15.65 16.5,19.5 2.475,3.85 5.625,9.475 7,12.5 1.375,3.025 3.85,10 5.5,15.5 1.65,5.5 3.225,12.925 3.5,16.5 0.275,3.575 0.05,10.775 -0.5,16 -0.55,5.225 -2.35,13.1 -4,17.5 -1.65,4.4 -4.8,10.925 -7,14.5 -2.2,3.575 -7.825,10.1 -12.5,14.5 -4.675,4.4 -11.875,9.8 -16,12 -4.125,2.2 -11.1,5.125 -15.5,6.5 -4.4,1.375 -9.575,2.275 -11.5,2 -1.925,-0.275 -4.625,-2.075 -6,-4 -1.375,-1.925 -3.625,-4.85 -5,-6.5 l -2.5,-3 3.5,-1 c 1.925,-0.55 6.425,-2.8 10,-5 3.575,-2.2 8.3,-5.35 10.5,-7 2.2,-1.65 6.7,-5.7 10,-9 3.3,-3.3 7.575,-9.15 9.5,-13 1.925,-3.85 4.175,-9.475 5,-12.5 0.825,-3.025 1.275,-10.9 1,-17.5 -0.275,-6.6 -1.175,-14.475 -2,-17.5 -0.825,-3.025 -2.85,-8.65 -4.5,-12.5 -1.65,-3.85 -4.8,-9.925 -7,-13.5 -2.2,-3.575 -6.475,-9.425 -9.5,-13 -3.025,-3.575 -9.325,-10.55 -14,-15.5 -4.675,-4.95 -11.2,-12.6 -14.5,-17 -3.3,-4.4 -7.8,-12.05 -10,-17 -2.2,-4.95 -4.675,-12.825 -5.5,-17.5 -0.825,-4.675 -1.725,-10.525 -2,-13 -0.275,-2.475 -0.275,-6.075 0,-8 0.275,-1.925 0.95,-5.75 1.5,-8.5 0.55,-2.75 2.35,-8.825 4,-13.5 1.65,-4.675 4.575,-10.975 6.5,-14 1.925,-3.025 7.325,-9.1 12,-13.5 4.675,-4.4 11.425,-9.35 15,-11 3.575,-1.65 11,-4.125 16.5,-5.5 5.5,-1.375 12.7,-3.4 16,-4.5 3.3,-1.1 8.925,-3.8 12.5,-6 3.575,-2.2 8.525,-6.475 11,-9.5 2.475,-3.025 4.725,-5.275 5,-5 m 2.5,9.5 c 0.55,0 0.775,2.025 0.5,4.5 -0.275,2.475 -1.175,6.525 -2,9 -0.825,2.475 -3.3,7.2 -5.5,10.5 -2.2,3.3 -8.275,9.15 -13.5,13 -5.225,3.85 -11.975,10.15 -15,14 -3.025,3.85 -6.625,10.6 -8,15 -1.375,4.4 -2.275,11.375 -2,15.5 0.275,4.125 1.625,10.875 3,15 1.375,4.125 4.3,10.2 6.5,13.5 2.2,3.3 8.275,10.95 13.5,17 5.225,6.05 12.2,15.05 15.5,20 3.3,4.95 8.475,13.275 11.5,18.5 3.025,5.225 7.075,13.325 9,18 1.925,4.675 4.625,13.675 6,20 1.375,6.325 2.5,15.1 2.5,19.5 0,4.4 -0.45,11.6 -1,16 -0.55,4.4 -2.125,11.375 -3.5,15.5 -1.375,4.125 -3.85,10.2 -5.5,13.5 -1.65,3.3 -4.8,8.475 -7,11.5 -2.2,3.025 -7.375,8.65 -11.5,12.5 -4.125,3.85 -11.55,9.25 -16.5,12 -4.95,2.75 -13.95,6.575 -20,8.5 -6.05,1.925 -14.15,3.725 -18,4 -4.868,0.348 -7.457,-0.262 -8.5,-2 -1.187,-1.978 -0.769,-2.813 2,-4 1.925,-0.825 5.75,-1.95 8.5,-2.5 2.75,-0.55 9.05,-2.8 14,-5 4.95,-2.2 11.25,-5.575 14,-7.5 2.75,-1.925 8.15,-6.65 12,-10.5 3.85,-3.85 9.25,-11.05 12,-16 2.75,-4.95 6.125,-13.5 7.5,-19 1.375,-5.5 2.5,-14.05 2.5,-19 0,-4.95 -0.675,-12.375 -1.5,-16.5 -0.825,-4.125 -2.625,-10.875 -4,-15 -1.375,-4.125 -4.75,-11.775 -7.5,-17 -2.75,-5.225 -7.925,-13.325 -11.5,-18 -3.575,-4.675 -9.2,-11.2 -12.5,-14.5 -3.3,-3.3 -10.05,-9.825 -15,-14.5 -4.95,-4.675 -11.025,-11.425 -13.5,-15 -2.475,-3.575 -5.85,-10.325 -7.5,-15 -1.919,-5.438 -2.82,-12.642 -2.5,-20 0.275,-6.325 1.625,-14.875 3,-19 1.375,-4.125 4.525,-10.425 7,-14 2.475,-3.575 6.075,-8.075 8,-10 1.925,-1.925 6.875,-5.525 11,-8 4.125,-2.475 11.1,-6.3 15.5,-8.5 4.4,-2.2 9.575,-5.125 11.5,-6.5 1.925,-1.375 4.85,-3.85 6.5,-5.5 1.65,-1.65 4.35,-5.475 6,-8.5 1.65,-3.025 3.45,-5.5 4,-5.5 m -52.5,8 c 1.925,0 5.525,0.225 8,0.5 l 4.5,0.5 -4.5,1.5 c -2.475,0.825 -8.55,2.85 -13.5,4.5 -4.95,1.65 -11.925,4.8 -15.5,7 -3.575,2.2 -9.2,6.7 -12.5,10 -3.3,3.3 -8.025,9.375 -10.5,13.5 -2.475,4.125 -5.625,11.1 -7,15.5 -1.808,5.787 -2.777,7.308 -3.5,5.5 -0.55,-1.375 -0.55,-5.425 0,-9 0.55,-3.575 2.125,-9.875 3.5,-14 1.375,-4.125 4.075,-9.75 6,-12.5 1.925,-2.75 4.85,-6.35 6.5,-8 1.65,-1.65 6.15,-4.8 10,-7 3.85,-2.2 11.05,-4.9 16,-6 4.95,-1.1 10.575,-2 12.5,-2 m -45.5,5 c 0.55,0 0.55,1.125 0,2.5 -0.55,1.375 -3.025,7 -5.5,12.5 -2.475,5.5 -5.4,14.275 -6.5,19.5 -1.1,5.225 -1.775,13.55 -1.5,18.5 0.275,4.95 1.625,14.625 3,21.5 1.375,6.875 3.175,15.65 4,19.5 0.825,3.85 2.625,9.7 4,13 1.375,3.3 3.4,7.8 4.5,10 1.1,2.2 5.15,8.05 9,13 3.85,4.95 8.35,10.35 10,12 1.65,1.65 7.275,7.95 12.5,14 5.225,6.05 11.75,14.825 14.5,19.5 2.75,4.675 6.125,11.875 7.5,16 1.375,4.125 2.95,10.875 3.5,15 0.55,4.125 0.325,11.55 -0.5,16.5 -0.825,4.95 -3.525,12.825 -6,17.5 -2.475,4.675 -6.75,10.75 -9.5,13.5 -2.75,2.75 -8.15,7.025 -12,9.5 -3.85,2.475 -9.7,5.4 -13,6.5 -4.476,1.492 -7.27,1.365 -11,-0.5 -2.75,-1.375 -5.9,-4.075 -7,-6 -1.333,-2.333 -1.333,-4.5 0,-6.5 1.1,-1.65 4.25,-5.925 7,-9.5 2.75,-3.575 6.125,-10.1 7.5,-14.5 1.375,-4.4 2.275,-10.475 2,-13.5 -0.275,-3.025 -0.95,-7.75 -1.5,-10.5 -0.55,-2.75 -2.125,-7.7 -3.5,-11 -1.375,-3.3 -4.525,-8.925 -7,-12.5 -2.475,-3.575 -8.55,-11.45 -13.5,-17.5 -4.95,-6.05 -11.7,-15.5 -15,-21 -3.3,-5.5 -7.125,-13.6 -8.5,-18 -1.375,-4.4 -2.95,-9.125 -3.5,-10.5 -0.55,-1.375 -0.55,-2.725 0,-3 0.55,-0.275 0.55,-2.3 0,-4.5 -0.55,-2.2 -1.9,-6.25 -3,-9 -1.333,-3.333 -1.333,-5.5 0,-6.5 1.1,-0.825 2.45,-2.175 3,-3 0.55,-0.825 0.775,-2.85 0.5,-4.5 -0.275,-1.65 0.175,-3.45 1,-4 0.825,-0.55 2.175,-1.45 3,-2 0.886,-0.591 -0.341,-2.841 -3,-5.5 -2.475,-2.475 -4.275,-5.4 -4,-6.5 0.275,-1.1 1.175,-4.7 2,-8 0.825,-3.3 3.525,-11.175 6,-17.5 2.475,-6.325 5.85,-13.975 7.5,-17 1.65,-3.025 4.8,-7.975 7,-11 2.2,-3.025 6.475,-7.975 9.5,-11 3.025,-3.025 5.95,-5.5 6.5,-5.5 m 101,5.5 c 0.55,0.275 0.775,2.75 0.5,5.5 -0.275,2.75 -1.175,7.475 -2,10.5 -0.825,3.025 -3.075,7.75 -5,10.5 -1.925,2.75 -4.85,5.9 -6.5,7 -1.65,1.1 -6.15,5.6 -10,10 -3.85,4.4 -7.9,10.025 -9,12.5 -1.1,2.475 -2.225,6.975 -2.5,10 -0.275,3.025 0.4,10.675 1.5,17 l 2,11.5 -2.5,-2.5 c -1.375,-1.375 -4.3,-6.55 -6.5,-11.5 -2.315,-5.209 -4,-12.159 -4,-16.5 0,-4.125 0.675,-9.975 1.5,-13 0.825,-3.025 3.075,-8.425 5,-12 1.925,-3.575 7.1,-9.425 11.5,-13 4.4,-3.575 10.925,-8.975 14.5,-12 3.575,-3.025 7.4,-7.525 8.5,-10 1.1,-2.475 2.45,-4.275 3,-4 m -417.500004,9.5 c 0.275,0 -0.175,2.025 -1,4.5 -0.825,2.475 -1.5,6.975 -1.5,10 0,3.025 0.225,7.525 0.5,10 0.275,2.475 0.5,6.975 0.5,10 0,3.025 -0.45,6.625 -1,8 -0.685,1.712 -1.158,1.869 -1.5,0.5 -0.275,-1.1 -1.4,-6.725 -2.5,-12.5 -1.1,-5.775 -2,-14.325 -2,-19 v -8.5 l 4,-1.5 c 2.2,-0.825 4.225,-1.5 4.5,-1.5 m 85.500004,10 c -0.55,-0.55 -1.225,0.35 -1.5,2 -0.382,2.29 -1.801,3.118 -6,3.5 -3.025,0.275 -6.625,-0.175 -8,-1 -1.978,-1.187 -2.396,-0.978 -2,1 0.275,1.375 1.175,3.4 2,4.5 1.144,1.525 0.312,1.762 -3.5,1 -2.75,-0.55 -5.675,-1.45 -6.5,-2 -0.891,-0.594 -1.297,0.016 -1,1.5 0.275,1.375 1.4,3.4 2.5,4.5 l 2,2 -4,-0.5 c -2.2,-0.275 -5.125,-1.175 -6.5,-2 l -2.5,-1.5 1,3 c 0.55,1.65 2.8,3.9 5,5 2.2,1.1 4.675,1.775 5.5,1.5 0.825,-0.275 0.825,2.2 0,5.5 -0.825,3.3 -1.725,7.125 -2,8.5 -0.275,1.375 -0.05,4.975 0.5,8 0.55,3.025 2.125,7.975 3.5,11 1.375,3.025 4.075,7.075 6,9 1.925,1.925 6.2,4.85 9.5,6.5 3.3,1.65 9.15,3.225 13,3.5 4.049,0.289 9.74,-0.765 13.5,-2.5 3.575,-1.65 7.625,-4.125 9,-5.5 1.375,-1.375 3.625,-4.525 5,-7 1.375,-2.475 3.175,-6.75 4,-9.5 0.825,-2.75 1.5,-7.925 1.5,-11.5 0,-3.575 -1.125,-9.425 -2.5,-13 -1.375,-3.575 -3.625,-7.85 -5,-9.5 -1.375,-1.65 -4.3,-4.35 -6.5,-6 -2.2,-1.65 -6.7,-3.9 -10,-5 -3.3,-1.1 -8.025,-2.45 -10.5,-3 -2.475,-0.55 -4.95,-1.45 -5.5,-2 m 143.5,6 c -0.825,0 -4.875,1.125 -9,2.5 -4.125,1.375 -9.075,3.85 -11,5.5 -1.925,1.65 -5.075,5.25 -7,8 -1.925,2.75 -4.175,7.025 -5,9.5 -0.825,2.475 -1.95,7.2 -2.5,10.5 -0.55,3.3 -0.55,8.7 0,12 0.55,3.3 2.35,8.025 4,10.5 1.65,2.475 4.575,5.625 6.5,7 1.925,1.375 5.75,3.175 8.5,4 2.75,0.825 7.025,1.275 9.5,1 2.475,-0.275 6.75,-1.85 9.5,-3.5 2.75,-1.65 6.8,-5.475 9,-8.5 2.2,-3.025 4.9,-9.1 6,-13.5 1.1,-4.4 1.55,-10.7 1,-14 -0.55,-3.3 -1.675,-7.575 -2.5,-9.5 -1.111,-2.591 -0.721,-4.279 1.5,-6.5 1.65,-1.65 3.225,-3.45 3.5,-4 0.275,-0.55 -1.525,-0.55 -4,0 -2.475,0.55 -5.4,0.55 -6.5,0 -1.333,-0.667 -1.333,-1.833 0,-3.5 1.1,-1.375 1.775,-2.95 1.5,-3.5 -0.275,-0.55 -1.625,-0.55 -3,0 -1.375,0.55 -4.075,0.775 -6,0.5 -2.153,-0.308 -3.308,-1.27 -3,-2.5 0.275,-1.1 -0.175,-2 -1,-2 m -123,13 c 0.825,0 2.625,0.9 4,2 1.375,1.1 2.275,2.9 2,4 -0.275,1.1 -1.4,2.675 -2.5,3.5 -1.1,0.825 -3.125,1.05 -4.5,0.5 -1.375,-0.55 -2.725,-1.9 -3,-3 -0.275,-1.1 0.175,-3.125 1,-4.5 0.825,-1.375 2.175,-2.5 3,-2.5 m 121,2 c 0.825,0 2.625,0.45 4,1 1.559,0.624 2.312,2.318 2,4.5 -0.275,1.925 -1.625,3.725 -3,4 -1.375,0.275 -3.175,0.05 -4,-0.5 -0.825,-0.55 -1.725,-1.675 -2,-2.5 -0.275,-0.825 -0.05,-2.625 0.5,-4 0.55,-1.375 1.675,-2.5 2.5,-2.5 m -151,2 c 0.825,0 3.075,0.675 5,1.5 1.925,0.825 4.175,2.85 5,4.5 0.825,1.65 1.275,3.9 1,5 -0.275,1.1 -1.85,3.35 -3.5,5 -1.65,1.65 -4.8,3.225 -7,3.5 l -4,0.5 1,3.5 c 0.55,1.925 3.475,5.3 6.5,7.5 3.025,2.2 7.975,4.225 11,4.5 3.025,0.275 7.3,0.05 9.5,-0.5 2.2,-0.55 5.125,-1.9 6.5,-3 1.375,-1.1 3.85,-4.475 5.5,-7.5 1.65,-3.025 3.45,-7.525 4,-10 l 1,-4.5 1.5,2.5 c 0.825,1.375 1.275,4.975 1,8 -0.275,3.025 -0.95,7.075 -1.5,9 -0.55,1.925 -2.8,5.75 -5,8.5 -2.2,2.75 -6.475,6.125 -9.5,7.5 -3.025,1.375 -7.975,2.275 -11,2 -3.025,-0.275 -7.525,-1.4 -10,-2.5 -2.475,-1.1 -6.525,-4.025 -9,-6.5 -2.475,-2.475 -5.4,-6.75 -6.5,-9.5 -1.1,-2.75 -1.55,-8.825 -1,-13.5 0.682,-5.8 2.112,-9.612 4.5,-12 1.925,-1.925 4.175,-3.5 5,-3.5 m 331.5,2 c 1.65,0 4.575,0.45 6.5,1 1.925,0.55 5.525,2.35 8,4 2.475,1.65 4.95,4.35 5.5,6 l 1,3 -5.5,-3 c -3.293,-1.796 -8.108,-2.799 -12,-2.5 -3.575,0.275 -8.3,1.4 -10.5,2.5 -2.2,1.1 -6.025,4.25 -8.5,7 -3.561,3.956 -4.396,4.374 -4,2 0.275,-1.65 1.85,-5.475 3.5,-8.5 1.65,-3.025 5.25,-6.85 8,-8.5 2.75,-1.65 6.35,-3 8,-3 m -198,2 c 1.1,0 3.35,1.125 5,2.5 1.65,1.375 2.775,3.85 2.5,5.5 -0.275,1.65 -1.625,4.125 -3,5.5 -1.375,1.375 -3.625,2.275 -5,2 -1.375,-0.275 -3.625,-1.625 -5,-3 -1.375,-1.375 -2.275,-3.625 -2,-5 0.275,-1.375 1.625,-3.625 3,-5 1.375,-1.375 3.4,-2.5 4.5,-2.5 m 30,3 c 0.55,0.55 1.9,3.025 3,5.5 1.1,2.475 1.775,6.975 1.5,10 -0.275,3.025 -1.4,7.75 -2.5,10.5 -1.1,2.75 -3.8,6.8 -6,9 -2.2,2.2 -6.25,4.9 -9,6 -2.75,1.1 -6.125,1.775 -7.5,1.5 -1.375,-0.275 -4.3,-1.175 -6.5,-2 -2.2,-0.825 -6.025,-3.75 -8.5,-6.5 -2.475,-2.75 -4.725,-7.025 -5,-9.5 l -0.5,-4.5 3,4 c 1.65,2.2 4.575,4.9 6.5,6 1.925,1.1 5.525,1.775 8,1.5 2.475,-0.275 6.525,-1.85 9,-3.5 2.475,-1.65 6.525,-5.925 9,-9.5 3.178,-4.591 4.5,-8.409 4.5,-13 0,-3.575 0.45,-6.05 1,-5.5 m -78,30 c -1.65,0 -4.125,1.125 -5.5,2.5 -1.874,1.874 -1.999,3.377 -0.5,6 1.1,1.925 2.675,4.4 3.5,5.5 0.825,1.1 1.05,3.35 0.5,5 -0.557,1.672 -2.771,3.443 -5,4 -2.2,0.55 -4.9,0.775 -6,0.5 -1.1,-0.275 -2.9,-0.95 -4,-1.5 -1.333,-0.667 -1.333,0 0,2 1.1,1.65 3.575,3.45 5.5,4 1.925,0.55 5.75,0.1 8.5,-1 3.333,-1.333 6.833,-1.333 10.5,0 3.025,1.1 6.85,1.325 8.5,0.5 1.65,-0.825 3.45,-2.4 4,-3.5 0.731,-1.462 -0.076,-1.731 -3,-1 -2.2,0.55 -5.125,0.775 -6.5,0.5 -1.375,-0.275 -3.175,-1.625 -4,-3 -0.825,-1.375 -1.275,-3.625 -1,-5 0.275,-1.375 1.625,-3.625 3,-5 1.375,-1.375 2.275,-3.625 2,-5 -0.275,-1.375 -2.075,-3.175 -4,-4 -1.925,-0.825 -4.85,-1.5 -6.5,-1.5 m -223.5000045,11 c 1.375,1.1 5.4250005,3.35 9.0000005,5 3.575,1.65 8.525,2.775 11,2.5 2.475,-0.275 6.525,-1.175 9,-2 2.475,-0.825 6.75,-2.625 9.5,-4 2.75,-1.375 7.25,-2.5 10,-2.5 h 5 l -2,2.5 c -1.1,1.375 -5.15,4.3 -9,6.5 -3.938,2.25 -10.936,4.437 -16,5 -4.95,0.55 -10.8,0.55 -13,0 -2.2,-0.55 -6.25,-2.575 -9,-4.5 -2.7500005,-1.925 -5.4500005,-5.075 -6.0000005,-7 l -1,-3.5 2.5,2 m 60.0000005,7 c 2.475,1.1 4.275,2.45 4,3 -0.275,0.55 -1.175,2.125 -2,3.5 -0.825,1.375 -2.625,3.625 -4,5 -1.375,1.375 -6.1,4.075 -10.5,6 -4.4,1.925 -10.25,3.275 -13,3 -2.75,-0.275 -7.25,-1.175 -10,-2 -2.75,-0.825 -6.8,-2.4 -9,-3.5 -2.2,-1.1 -5.125,-2.9 -6.5,-4 -1.861,-1.489 -0.711,-1.617 4.5,-0.5 3.85,0.825 8.35,1.275 10,1 1.65,-0.275 6.375,-1.625 10.5,-3 4.125,-1.375 10.65,-4.3 14.5,-6.5 l 7,-4 4.5,2 m 268.500004,9.5 c 0.55,1.375 1.45,5.65 2,9.5 0.55,3.85 1.45,9.25 2,12 0.55,2.75 1.9,7.7 3,11 1.1,3.3 4.25,10.5 7,16 2.75,5.5 10.625,17.425 17.5,26.5 7.099,9.37 13.796,19.957 15.5,24.5 1.913,5.101 2.638,10.537 2,15 -0.55,3.85 -2.575,9.475 -4.5,12.5 l -3.5,5.5 -7.5,-9 c -4.125,-4.95 -10.425,-11.7 -14,-15 -3.575,-3.3 -11.225,-8.925 -17,-12.5 -5.775,-3.575 -12.075,-6.725 -14,-7 l -3.5,-0.5 3,-1 c 1.65,-0.55 6.825,-4.375 11.5,-8.5 4.954,-4.371 8.917,-9.169 9.5,-11.5 0.55,-2.2 0.55,-3.775 0,-3.5 -0.55,0.275 -3.475,0.275 -6.5,0 -3.025,-0.275 -7.525,-2.075 -10,-4 -2.475,-1.925 -5.85,-5.75 -7.5,-8.5 -2.354,-3.923 -2.461,-4.892 -0.5,-4.5 1.375,0.275 4.075,0.05 6,-0.5 1.925,-0.55 4.4,-2.125 5.5,-3.5 1.489,-1.861 1.361,-3.011 -0.5,-4.5 -1.375,-1.1 -3.85,-4.025 -5.5,-6.5 -1.65,-2.475 -3.225,-6.525 -3.5,-9 -0.35,-3.15 1,-6.6 4.5,-11.5 2.75,-3.85 5.675,-8.575 6.5,-10.5 l 1.5,-3.5 1,2.5 m -257.500004,2.5 c 2.8,1.866 4.311,3.945 4,5.5 -0.275,1.375 -1.85,4.3 -3.5,6.5 -1.65,2.2 -5.925,5.575 -9.5,7.5 -3.575,1.925 -8.525,3.725 -11,4 -2.475,0.275 -6.75,0.05 -9.5,-0.5 -2.75,-0.55 -6.8,-1.9 -9,-3 -2.2,-1.1 -5.35,-3.35 -7,-5 -2.3,-2.3 -2.417,-2.883 -0.5,-2.5 1.375,0.275 5.425,0.275 9,0 3.575,-0.275 9.65,-1.85 13.5,-3.5 3.85,-1.65 9.7,-5.025 13,-7.5 l 6,-4.5 4.5,3 m 265.500004,0 c 0.55,0 1.9,3.15 3,7 1.1,3.85 2.9,9.7 4,13 1.1,3.3 3.125,8.25 4.5,11 1.375,2.75 4.3,7.7 6.5,11 2.2,3.3 8.05,10.95 13,17 4.95,6.05 11.025,14.15 13.5,18 2.475,3.85 5.4,10.375 6.5,14.5 1.1,4.125 1.775,10.425 1.5,14 -0.275,3.575 -0.95,8.3 -1.5,10.5 -0.55,2.2 -2.575,6.925 -4.5,10.5 -1.925,3.575 -4.85,7.85 -6.5,9.5 -2.3,2.3 -2.883,2.417 -2.5,0.5 0.275,-1.375 1.4,-4.075 2.5,-6 1.1,-1.925 3.125,-6.65 4.5,-10.5 1.375,-3.85 2.275,-9.925 2,-13.5 -0.275,-3.575 -0.95,-8.3 -1.5,-10.5 -0.55,-2.2 -1.9,-5.8 -3,-8 -1.1,-2.2 -6.5,-9.625 -12,-16.5 -5.5,-6.875 -12.025,-15.65 -14.5,-19.5 -2.475,-3.85 -6.075,-10.15 -8,-14 -1.925,-3.85 -4.625,-11.5 -6,-17 -1.375,-5.5 -2.5,-12.475 -2.5,-15.5 0,-3.025 0.45,-5.5 1,-5.5 m -255.500004,10 c 0.275,0 0.275,0.675 0,1.5 -0.275,0.825 -1.175,3.525 -2,6 -0.825,2.475 -3.525,6.975 -6,10 -2.475,3.025 -7.2,7.075 -10.5,9 -3.3,1.925 -8.7,4.175 -12,5 -3.3,0.825 -9.15,1.95 -13,2.5 -3.85,0.55 -6.325,0.55 -5.5,0 0.825,-0.55 3.975,-3.25 7,-6 3.025,-2.75 9.1,-6.35 13.5,-8 4.4,-1.65 10.025,-4.125 12.5,-5.5 2.475,-1.375 6.975,-5.2 10,-8.5 3.025,-3.3 5.725,-6 6,-6 m 8.5,4.5 c 1.65,1.925 2.775,4.625 2.5,6 -0.275,1.375 -0.95,4.3 -1.5,6.5 -0.55,2.2 -2.125,6.25 -3.5,9 -1.375,2.75 -4.75,7.025 -7.5,9.5 -2.75,2.475 -6.8,5.175 -9,6 -2.2,0.825 -5.575,1.275 -7.5,1 -1.925,-0.275 -6.65,-1.85 -10.5,-3.5 l -7,-3 4.5,-1 c 2.475,-0.55 7.65,-2.575 11.5,-4.5 3.85,-1.925 9.475,-5.975 12.5,-9 3.025,-3.025 7.075,-8.875 9,-13 l 3.5,-7.5 3,3.5 m 9.000004,5 c 0.55,0.275 2.125,1.625 3.5,3 1.762,1.762 2.057,3.828 1,7 -0.825,2.475 -3.525,6.075 -6,8 -2.475,1.925 -4.275,4.175 -4,5 0.275,0.825 0.725,1.95 1,2.5 0.275,0.55 1.85,1.45 3.5,2 l 3,1 -4,3.5 c -2.2,1.925 -5.800004,5.3 -8.000004,7.5 -2.2,2.2 -5.35,6.925 -7,10.5 -1.65,3.575 -4.125,7.625 -5.5,9 -1.375,1.375 -4.975,3.4 -8,4.5 -3.025,1.1 -7.525,1.775 -10,1.5 -2.475,-0.275 -7.65,-1.625 -11.5,-3 -3.85,-1.375 -6.325,-2.725 -5.5,-3 0.825,-0.275 3.75,-0.95 6.5,-1.5 2.75,-0.55 7.925,-2.575 11.5,-4.5 3.575,-1.925 8.975,-6.425 12,-10 3.025,-3.575 7.975,-8.975 11,-12 3.025,-3.025 7.525,-9.325 10,-14 2.475004,-4.675 4.725004,-10.525 5.000004,-13 0.275,-2.475 0.95,-4.275 1.5,-4 m 210,2 c 0.55,0.825 2.35,4.2 4,7.5 1.65,3.3 4.125,7.125 5.5,8.5 l 2.5,2.5 -4,-0.5 c -2.2,-0.275 -5.125,-1.175 -6.5,-2 -1.375,-0.825 -3.175,-3.075 -4,-5 -0.825,-1.925 -0.825,-5.525 0,-8 0.843,-2.529 1.938,-3.843 2.5,-3 m 170.5,0.5 c 1.375,1.1 4.525,4.25 7,7 2.475,2.75 6.525,8.15 9,12 2.475,3.85 6.3,11.275 8.5,16.5 2.2,5.225 4.9,14.225 6,20 1.1,5.775 1.775,15.9 1.5,22.5 -0.275,6.6 -1.4,16.05 -2.5,21 -1.1,4.95 -2.9,11.475 -4,14.5 -1.1,3.025 -4.025,9.325 -6.5,14 -2.475,4.675 -6.75,11.2 -9.5,14.5 -2.75,3.3 -6.125,7.125 -7.5,8.5 -1.375,1.375 -6.325,5.2 -11,8.5 -4.675,3.3 -11.875,7.575 -16,9.5 -4.125,1.925 -13.8,4.85 -21.5,6.5 -7.7,1.65 -17.15,2.775 -21,2.5 l -7,-0.5 2,-2 c 1.1,-1.1 5.6,-2.675 10,-3.5 4.4,-0.825 11.375,-2.4 15.5,-3.5 4.125,-1.1 11.55,-3.8 16.5,-6 4.95,-2.2 12.6,-6.475 17,-9.5 4.4,-3.025 10.925,-8.65 14.5,-12.5 3.575,-3.85 8.3,-9.925 10.5,-13.5 2.2,-3.575 5.575,-10.55 7.5,-15.5 1.925,-4.95 4.175,-13.275 5,-18.5 0.825,-5.225 1.275,-12.875 1,-17 -0.275,-4.125 -0.95,-10.2 -1.5,-13.5 -0.55,-3.3 -1.675,-8.7 -2.5,-12 -0.825,-3.3 -2.85,-9.6 -4.5,-14 -1.65,-4.4 -4.575,-10.925 -6.5,-14.5 -1.925,-3.575 -5.075,-8.75 -7,-11.5 -1.925,-2.75 -3.95,-6.575 -4.5,-8.5 l -1,-3.5 2.5,2 m -179.5,8 c 0.55,1.1 2.125,4.925 3.5,8.5 1.375,3.575 3.625,8.525 5,11 1.375,2.475 4.75,6.75 7.5,9.5 2.75,2.75 6.575,5.675 8.5,6.5 2.769,1.187 2.978,1.604 1,2 -1.375,0.275 -4.525,-0.175 -7,-1 -2.475,-0.825 -6.525,-2.625 -9,-4 -2.475,-1.375 -6.3,-4.3 -8.5,-6.5 -2.2,-2.2 -5.35,-7.15 -7,-11 -1.65,-3.85 -2.775,-8.125 -2.5,-9.5 0.275,-1.375 2.075,-3.625 4,-5 2.443,-1.745 3.802,-1.896 4.5,-0.5 m -180,1 c 1.1,0 4.7,0.9 8,2 3.3,1.1 8.025,2.675 10.5,3.5 2.475,0.825 10.35,2.85 17.5,4.5 7.15,1.65 20.2,3.675 29,4.5 8.8,0.825 22.525,1.275 30.5,1 7.975,-0.275 16.525,-0.725 19,-1 2.475,-0.275 8.1,-0.725 12.5,-1 l 8,-0.5 4.5,6 c 2.475,3.3 6.525,9.6 9,14 2.475,4.4 5.4,9.125 6.5,10.5 1.1,1.375 4.925,4.075 8.5,6 3.575,1.925 10.325,4.625 15,6 4.675,1.375 11.2,3.4 14.5,4.5 3.3,1.1 9.375,3.8 13.5,6 4.125,2.2 10.425,6.475 14,9.5 3.575,3.025 7.85,6.85 9.5,8.5 1.65,1.65 5.7,6.6 9,11 3.3,4.4 7.575,11.375 9.5,15.5 1.925,4.125 5.975,9.975 9,13 3.025,3.025 8.425,8.65 12,12.5 3.575,3.85 7.85,10.15 9.5,14 1.788,4.172 2.596,9.02 2,12 -0.55,2.75 -1.675,6.125 -2.5,7.5 -0.825,1.375 -2.4,3.85 -3.5,5.5 l -2,3 -1.5,-3.5 c -0.825,-1.925 -1.725,-3.275 -2,-3 -0.275,0.275 -1.175,2.075 -2,4 -0.825,1.925 -3.075,4.175 -5,5 -1.925,0.825 -4.175,1.275 -5,1 -0.825,-0.275 -2.175,-1.4 -3,-2.5 -0.825,-1.1 -2.175,-2.45 -3,-3 -0.866,-0.578 -1.289,0.479 -1,2.5 0.275,1.925 -0.175,3.275 -1,3 -0.825,-0.275 -3.3,-0.95 -5.5,-1.5 -2.2,-0.55 -6.475,-2.35 -9.5,-4 -3.025,-1.65 -7.075,-4.125 -9,-5.5 -1.925,-1.375 -3.95,-3.4 -4.5,-4.5 -0.55,-1.1 -0.1,-5.6 1,-10 1.1,-4.4 1.55,-8.45 1,-9 -0.55,-0.55 -1.9,0.575 -3,2.5 -1.1,1.925 -2.9,5.975 -4,9 l -2,5.5 -5,0.5 c -2.75,0.275 -6.575,0.05 -8.5,-0.5 -1.925,-0.55 -4.175,-2.575 -5,-4.5 -0.825,-1.925 -2.625,-5.525 -4,-8 -1.375,-2.475 -4.3,-6.075 -6.5,-8 -2.2,-1.925 -6.475,-4.625 -9.5,-6 l -5.5,-2.5 v -5.5 c 0,-3.025 -0.675,-10.225 -1.5,-16 -0.825,-5.775 -2.85,-14.1 -4.5,-18.5 -1.65,-4.4 -3.9,-9.125 -5,-10.5 -1.333,-1.667 -1.333,0 0,5 1.1,4.125 2.9,13.8 4,21.5 1.1,7.7 1.325,17.375 0.5,21.5 -0.825,4.125 -2.625,9.75 -4,12.5 -1.375,2.75 -4.975,7.475 -8,10.5 -3.025,3.025 -9.325,7.075 -14,9 -5.047,2.078 -9.922,5.328 -12,8 -1.925,2.475 -4.85,5.85 -6.5,7.5 -1.65,1.65 -5.925,4.35 -9.5,6 -3.575,1.65 -8.075,2.775 -10,2.5 -1.925,-0.275 -4.4,-2.075 -5.5,-4 -1.1,-1.925 -2.9,-3.275 -4,-3 -1.1,0.275 -1.775,0.725 -1.5,1 0.275,0.275 1.175,1.85 2,3.5 l 1.5,3 -4,-0.5 c -2.2,-0.275 -5.8,-1.4 -8,-2.5 -2.2,-1.1 -4.675,-3.35 -5.5,-5 -0.825,-1.65 -1.95,-2.775 -2.5,-2.5 -0.55,0.275 -0.1,2.3 1,4.5 l 2,4 -5,-1.5 c -3.469,-1.041 -5.459,-2.725 -6.5,-5.5 -0.825,-2.2 -1.95,-4.225 -2.5,-4.5 -0.55,-0.275 -0.775,0.4 -0.5,1.5 0.275,1.1 0.05,2.225 -0.5,2.5 -0.55,0.275 -2.125,-0.4 -3.5,-1.5 -1.375,-1.1 -2.725,-3.575 -3,-5.5 -0.275,-1.925 -0.05,-6.2 0.5,-9.5 0.55,-3.3 1.675,-8.025 2.5,-10.5 0.825,-2.475 3.075,-7.425 5,-11 1.925,-3.575 6.2,-9.875 9.5,-14 3.3,-4.125 6.675,-9.075 7.5,-11 0.825,-1.925 1.275,-3.95 1,-4.5 -0.275,-0.55 0.175,-5.05 1,-10 1.064,-6.386 0.919,-8.419 -0.5,-7 -1.1,1.1 -2.9,4.7 -4,8 -1.1,3.3 -2.45,7.8 -3,10 -0.55,2.2 -1.9,5.125 -3,6.5 l -2,2.5 0.5,-7 0.5,-7 -2,2.5 c -1.1,1.375 -3.35,7 -5,12.5 l -3,10 -4.5,-2.5 c -2.475,-1.375 -7.65,-5.875 -11.5,-10 -3.85,-4.125 -8.575,-10.65 -10.5,-14.5 -1.925,-3.85 -3.95,-6.775 -4.5,-6.5 -0.55,0.275 -0.1,3.2 1,6.5 1.1,3.3 3.8,8.7 6,12 2.2,3.3 6.25,8.25 9,11 2.75,2.75 6.125,6.125 7.5,7.5 1.554,1.554 2.122,4.013 1.5,6.5 l -1,4 -2.5,-4 c -1.375,-2.2 -7.225,-8.275 -13,-13.5 -5.775,-5.225 -13.425,-11.975 -17,-15 -3.575,-3.025 -6.725,-5.275 -7,-5 -0.275,0.275 -1.175,0.725 -2,1 -0.825,0.275 -3.3,-1.975 -5.5,-5 -2.2,-3.025 -4.45,-7.975 -5,-11 -0.55,-3.025 -0.55,-7.3 0,-9.5 0.55,-2.2 1.225,-5.8 1.5,-8 l 0.5,-4 -2.5,3 c -1.375,1.65 -2.95,4.8 -3.5,7 -0.55,2.2 -1.225,6.025 -1.5,8.5 l -0.5,4.5 -3.5,-7.5 c -1.925,-4.125 -3.95,-10.2 -4.5,-13.5 -0.55,-3.3 -0.55,-8.7 0,-12 0.55,-3.3 1.225,-8.25 1.5,-11 l 0.5,-5 -3,2 c -1.65,1.1 -5.475,3.8 -8.5,6 -3.025,2.2 -6.400004,5.125 -7.500004,6.5 -1.1,1.375 -2.225,1.825 -2.5,1 -0.275,-0.825 -0.05,-3.3 0.5,-5.5 0.55,-2.2 2.125,-5.35 3.5,-7 1.375,-1.65 3.400004,-4.35 4.500004,-6 l 2,-3 -3,1 c -1.650004,0.55 -4.350004,1.9 -6.000004,3 -1.65,1.1 -3.225,1.775 -3.5,1.5 -0.275,-0.275 0.625,-2.75 2,-5.5 1.375,-2.75 4.525,-7.025 7.000004,-9.5 2.475,-2.475 7.875,-7.425 12,-11 4.125,-3.575 7.725,-6.95 8,-7.5 0.275,-0.55 -0.4,-0.775 -1.5,-0.5 -1.1,0.275 -4.025,0.05 -6.5,-0.5 l -4.5,-1 5.5,-2.5 c 3.025,-1.375 6.85,-3.85 8.5,-5.5 1.65,-1.65 3.9,-3 5,-3 m 165.5,5 c 0.275,0.55 1.625,3.925 3,7.5 1.375,3.575 4.075,8.975 6,12 1.925,3.025 6.2,7.525 9.5,10 3.3,2.475 8.475,5.175 11.5,6 3.025,0.825 5.275,1.725 5,2 -0.275,0.275 -3.2,1.4 -6.5,2.5 -4,1.333 -5.833,1.333 -5.5,0 0.275,-1.1 -0.4,-2.45 -1.5,-3 -1.1,-0.55 -3.575,-1.45 -5.5,-2 -1.925,-0.55 -5.75,-2.8 -8.5,-5 -2.75,-2.2 -6.575,-6.7 -8.5,-10 -1.925,-3.3 -3.725,-8.475 -4,-11.5 -0.316,-3.474 0.421,-6.237 2,-7.5 1.375,-1.1 2.725,-1.55 3,-1 m -11,2 c 0.275,0 0.275,0.225 0,0.5 -0.275,0.275 0.4,3.425 1.5,7 1.1,3.575 3.575,8.975 5.5,12 1.925,3.025 5.525,7.3 8,9.5 2.475,2.2 6.975,4.675 10,5.5 3.025,0.825 5.275,2.175 5,3 -0.275,0.825 -2.75,1.95 -5.5,2.5 -2.75,0.55 -7.025,0.325 -9.5,-0.5 -2.475,-0.825 -6.3,-3.075 -8.5,-5 -2.2,-1.925 -5.8,-7.1 -8,-11.5 -2.2,-4.4 -4,-10.25 -4,-13 0,-2.75 1.125,-6.125 2.5,-7.5 1.375,-1.375 2.725,-2.5 3,-2.5 m -204.500004,18 c 0.55,0 0.1,1.35 -1,3 -1.1,1.65 -3.575,4.575 -5.5,6.5 -1.925,1.925 -7.325,4.85 -12,6.5 -4.675,1.65 -10.3,2.775 -12.5,2.5 -2.2,-0.275 -3.55,-0.95 -3,-1.5 0.55,-0.55 3.025,-2.125 5.5,-3.5 2.475,-1.375 6.3,-4.75 8.5,-7.5 2.941,-3.676 4.926,-4.868 7.5,-4.5 1.925,0.275 5.3,0.05 7.5,-0.5 2.2,-0.55 4.45,-1 5,-1 m 12,26.5 c 0.55,0.275 0.775,1.4 0.5,2.5 -0.275,1.1 -0.95,5.375 -1.5,9.5 -0.55,4.125 -2.125,9.075 -3.5,11 -1.375,1.925 -4.525,4.85 -7,6.5 -2.475,1.65 -6.975,3.45 -10,4 -3.025,0.55 -7.075,0.55 -9,0 -2.545,-0.727 -2.955,-1.273 -1.5,-2 1.1,-0.55 3.575,-1.675 5.5,-2.5 1.925,-0.825 5.75,-3.3 8.5,-5.5 2.75,-2.2 6.8,-7.375 9,-11.5 2.2,-4.125 4.9,-8.625 6,-10 1.1,-1.375 2.45,-2.275 3,-2 m 20.500004,3.5 c 0.275,0 -0.175,2.925 -1,6.5 -0.825,3.575 -1.05,9.2 -0.5,12.5 0.55,3.3 1.675,8.025 2.5,10.5 0.825,2.475 2.4,6.3 3.5,8.5 1.1,2.2 4.475,6.925 7.5,10.5 3.025,3.575 5.05,6.275 4.5,6 -0.55,-0.275 -3.25,-0.275 -6,0 -2.75,0.275 -4.55,0.95 -4,1.5 0.55,0.55 4.375,1.9 8.5,3 4.125,1.1 10.2,3.125 13.5,4.5 3.3,1.375 9.6,4.975 14,8 4.4,3.025 11.15,9.325 15,14 3.85,4.675 7.45,10.075 8,12 0.55,1.925 0.55,7.775 0,13 -0.748,7.104 -1.883,10.257 -4.5,12.5 l -3.5,3 1,-3.5 c 0.685,-2.396 0.369,-3.342 -1,-3 -1.1,0.275 -2.45,1.175 -3,2 -0.55,0.825 -1.675,2.4 -2.5,3.5 -0.825,1.1 -3.975,2.225 -7,2.5 -4.173,0.379 -5.862,-0.224 -7,-2.5 l -1.5,-3 -1.5,3.5 -1.5,3.5 -6,-1 c -3.3,-0.55 -7.8,-1.675 -10,-2.5 -2.2,-0.825 -5.575,-2.625 -7.5,-4 -1.925,-1.375 -4.85,-3.85 -6.5,-5.5 -1.65,-1.65 -3.45,-2.775 -4,-2.5 -0.55,0.275 -3.475,0.275 -6.5,0 -3.025004,-0.275 -7.975004,-1.4 -11.000004,-2.5 -3.025,-1.1 -7.3,-3.35 -9.5,-5 -2.2,-1.65 -5.35,-5.025 -7,-7.5 -1.65,-2.475 -3.45,-6.525 -4,-9 -0.55,-2.475 -0.55,-6.75 0,-9.5 0.55,-2.75 5.95,-17.15 12,-32 6.05,-14.85 12.125,-29.25 13.5,-32 1.375,-2.75 4.750004,-7.475 7.500004,-10.5 2.75,-3.025 5.225,-5.5 5.5,-5.5 m -32.000004,2 c 0.275,0 -0.85,2.925 -2.5,6.5 -1.725,3.737 -5.338,8.2 -8.5,10.5 -3.025,2.2 -7.075,4.225 -9,4.5 l -3.5,0.5 3.5,-3 c 1.925,-1.65 5.3,-5.475 7.5,-8.5 2.2,-3.025 5.8,-6.625 8,-8 2.2,-1.375 4.225,-2.5 4.5,-2.5 m 7.5,25 c 0.55,0 0.55,1.125 0,2.5 -0.55,1.375 -2.125,3.625 -3.5,5 -1.392,1.392 -4.494,2.278 -7,2 l -4.5,-0.5 3.5,-1.5 c 1.925,-0.825 5.075,-2.85 7,-4.5 1.925,-1.65 3.95,-3 4.5,-3 m 212.500004,59.5 c 1.375,0.275 5.2,2.3 8.5,4.5 3.3,2.2 7.35,6.475 9,9.5 1.656,3.036 2.776,7.964 2.5,11 -0.275,3.025 -1.85,7.075 -3.5,9 -1.65,1.925 -5.475,3.95 -8.5,4.5 -3.025,0.55 -7.975,0.55 -11,0 -3.025,-0.55 -7.3,-1.675 -9.5,-2.5 -2.2,-0.825 -5.35,-3.075 -7,-5 -2.06,-2.403 -2.53,-4.284 -1.5,-6 0.825,-1.375 2.85,-3.625 4.5,-5 1.65,-1.375 4.8,-4.975 7,-8 2.2,-3.025 4.675,-7.075 5.5,-9 0.947,-2.211 2.421,-3.316 4,-3"
     fill="#000000"
     stroke="none"
     fill-rule="evenodd"
     id="path445" />
</svg>
